<svg width="19" height="18" viewBox="0 0 19 18" fill="none" xmlns="http://www.w3.org/2000/svg">
<path d="M9.19333 14.2503C9.04436 14.2511 8.89851 14.2076 8.77437 14.1253C8.65023 14.0429 8.55342 13.9255 8.4963 13.7879C8.43917 13.6503 8.42431 13.4988 8.45362 13.3528C8.48292 13.2067 8.55505 13.0727 8.66083 12.9678L12.6358 9.00027L8.66083 5.03276C8.53796 4.88929 8.47375 4.70473 8.48104 4.51597C8.48833 4.32722 8.56658 4.14816 8.70015 4.01459C8.83373 3.88102 9.01278 3.80277 9.20154 3.79548C9.39029 3.78819 9.57485 3.85239 9.71833 3.97526L14.2183 8.47527C14.358 8.61579 14.4364 8.80588 14.4364 9.00401C14.4364 9.20215 14.358 9.39224 14.2183 9.53276L9.71833 14.0328C9.57863 14.1713 9.39008 14.2494 9.19333 14.2503Z" fill="white"/>
<path d="M4.69333 14.2501C4.54436 14.251 4.39851 14.2075 4.27437 14.1251C4.15023 14.0428 4.05342 13.9253 3.9963 13.7878C3.93917 13.6502 3.92431 13.4987 3.95362 13.3526C3.98292 13.2066 4.05505 13.0725 4.16083 12.9676L8.13583 9.00014L4.16083 5.03264C4.0196 4.89141 3.94026 4.69987 3.94026 4.50014C3.94026 4.30041 4.0196 4.10887 4.16083 3.96764C4.30205 3.82641 4.4936 3.74707 4.69333 3.74707C4.89305 3.74707 5.0846 3.82641 5.22583 3.96764L9.72583 8.46764C9.86552 8.60816 9.94392 8.79825 9.94392 8.99639C9.94392 9.19453 9.86552 9.38462 9.72583 9.52514L5.22583 14.0251C5.15637 14.096 5.07353 14.1524 4.98213 14.191C4.89072 14.2296 4.79256 14.2497 4.69333 14.2501Z" fill="white"/>
</svg>
