<svg width="205" height="123" viewBox="0 0 205 123" fill="none" xmlns="http://www.w3.org/2000/svg">
<path d="M204.514 74.9105C204.59 74.2502 204.533 73.6717 204.22 73.2343C204.01 72.9501 203.719 72.7355 203.385 72.6183C202.998 72.4841 202.592 72.4094 202.182 72.3968C201.361 72.3479 200.547 72.4595 199.728 72.4645C196.572 72.4821 193.402 73.1707 190.35 73.9146C182.797 75.7543 175.436 78.4419 168.226 81.326C164.307 82.8927 160.205 84.4016 156.512 86.4716C153.942 87.9136 149.483 90.061 149.469 93.4376C149.456 96.2576 151.779 98.6335 154.454 99.2314C157.906 100.008 161.491 99.1406 164.981 99.3772C165.423 99.4062 165.864 99.4579 166.302 99.532C163.397 101.75 160.346 103.77 157.169 105.577C145.182 112.337 131.395 118.583 117.372 116.945C111.002 116.197 104.516 113.1 99.7019 108.868C94.6159 104.396 90.9516 99.0444 87.9678 92.9444C81.8058 80.3433 79.1287 65.3236 81.9578 51.2771C86.7508 50.2525 91.4361 48.7764 95.951 46.8686C101.584 44.4625 106.848 41.1818 111.381 37.0529C115.969 32.8762 120.181 27.5752 122.587 21.8183C124.52 17.1934 125.297 11.3329 123.547 6.52662C122.701 4.20021 121.213 1.97824 118.904 0.898716C116.114 -0.404391 112.99 -0.152284 110.158 0.907584C103.057 3.56232 97.4447 8.86275 92.93 14.8035C88.451 20.6943 84.8268 27.4042 81.9023 34.187C80.1341 38.2489 78.6841 42.442 77.5656 46.7285C77.0725 46.8163 76.5779 46.9097 76.085 46.9856C73.4254 47.4172 70.5935 47.7431 67.5371 47.9643C61.682 48.3698 55.8072 48.4051 49.9477 48.0702C42.4044 47.6672 34.8502 46.7397 27.6554 44.3156C21.082 42.101 15.4311 38.7725 11.1432 33.5134L11.0794 33.4354C10.985 33.3105 10.8914 33.1829 10.801 33.0547C10.6075 32.7859 10.4189 32.5135 10.2354 32.2374C9.82965 31.622 9.44866 30.9864 9.09532 30.342C8.78485 29.7704 8.49524 29.1875 8.22646 28.5935L8.0853 28.2718C8.06086 28.2133 8.03017 28.1337 8.01708 28.1049C7.87514 27.7251 7.72795 27.3484 7.5962 26.9639C7.1587 25.6848 6.81419 24.3758 6.56537 23.0471C6.50399 22.7216 6.45066 22.3937 6.39734 22.0659C6.39432 22.0383 6.38981 22.0163 6.38697 21.9992C6.36571 21.8345 6.34548 21.6716 6.327 21.5076C6.24711 20.7928 6.19199 20.0742 6.16167 19.3518C6.09502 17.909 6.11072 16.4635 6.20873 15.0224C6.28619 13.6561 6.44675 12.2958 6.6895 10.949C6.92928 9.52725 6.29138 8.08138 4.80375 7.68277C3.513 7.33691 1.77746 8.14088 1.53757 9.56851C0.483619 15.8421 0.38153 22.4065 2.48978 28.4858C4.64022 34.6849 8.7762 39.7294 14.1042 43.4974C20.9912 48.3682 29.3804 50.8821 37.6365 52.1685C44.6264 53.2554 51.7566 53.6637 58.8358 53.6303C64.683 53.6026 70.5659 53.2145 76.3592 52.3179C75.9351 54.7379 75.6489 57.18 75.5018 59.6324C75.0242 67.8258 76.3968 76.1345 78.7741 83.9606C82.9468 97.6633 90.9602 111.512 104.104 118.292C111.025 121.856 118.835 123.087 126.546 122.275C134.377 121.449 141.839 118.933 148.989 115.713C155.579 112.746 162.024 109.27 167.885 105.025C168.523 104.563 169.152 104.089 169.777 103.614C169.755 104.151 169.698 104.686 169.608 105.216C169.03 108.666 167.366 111.954 167.319 115.493C167.284 118.227 169.052 121.032 171.808 121.674C175.095 122.439 178.213 118.595 180.208 116.425C183.073 113.309 185.488 109.667 187.917 106.214C192.382 99.8691 196.695 93.3244 200.225 86.4037C201.653 83.6048 203.053 80.6797 203.798 77.6117C204.019 76.705 204.409 75.8408 204.514 74.9105ZM11.064 33.3986C10.9917 33.3079 10.8982 33.1966 11.064 33.3986V33.3986ZM90.71 28.3015C93.9469 22.3215 97.4598 16.7647 102.344 12.1445C104.782 9.8392 107.297 8.03133 110.425 6.54263C110.999 6.25271 111.595 6.01096 112.209 5.8199C112.536 5.70935 112.863 5.61469 113.19 5.53594C113.346 5.49748 113.504 5.46254 113.664 5.4311C113.697 5.42366 113.876 5.3929 113.996 5.37159C114.147 5.3616 114.541 5.32434 114.617 5.32249C114.886 5.31274 115.148 5.32516 115.415 5.33417L115.517 5.33623L115.63 5.36669C115.879 5.43319 116.14 5.52986 116.392 5.58702C116.456 5.61908 116.524 5.64772 116.581 5.68071C116.745 5.77086 116.901 5.89431 117.063 5.98825C117.118 6.03584 117.174 6.08204 117.227 6.13166C117.392 6.28903 117.536 6.46137 117.688 6.62825C117.731 6.68886 117.776 6.74985 117.814 6.81073C117.932 7.00873 118.055 7.20368 118.162 7.40777C118.27 7.61185 118.366 7.83388 118.468 8.04693C118.15 7.37623 118.523 8.25188 118.584 8.44787C118.735 8.93511 118.857 9.43079 118.95 9.93235C118.982 10.1105 119.071 10.8891 119.005 10.2264C119.038 10.5623 119.074 10.8975 119.097 11.2363C119.159 12.3877 119.131 13.5423 119.012 14.6894C119.004 14.7703 118.997 14.8339 118.997 14.8649C118.996 14.8959 118.981 14.9573 118.967 15.0354C118.921 15.3201 118.877 15.5937 118.825 15.871C118.714 16.4564 118.58 17.0363 118.424 17.6107C118.283 18.1375 118.12 18.658 117.935 19.172C117.846 19.4215 117.744 19.6663 117.651 19.9147C117.916 19.204 117.545 20.1257 117.456 20.3084C116.14 22.9417 114.567 25.4389 112.76 27.7637C110.98 29.9896 109.007 32.0541 106.863 33.9329C106.345 34.3884 105.819 34.8279 105.284 35.2513C105.235 35.2888 104.803 35.6262 104.722 35.6861C104.41 35.9216 104.095 36.1533 103.778 36.3812C102.635 37.2013 101.459 37.9725 100.251 38.695C99.0073 39.4405 97.7347 40.1357 96.4336 40.7807C95.8198 41.0858 95.2015 41.3803 94.5786 41.6641C94.2661 41.8047 93.9528 41.9422 93.6379 42.0807L93.1641 42.2851L93.0936 42.3153L92.9604 42.3687C90.2273 43.4669 87.431 44.4008 84.5865 45.1653C84.2004 45.2699 83.8099 45.3629 83.4211 45.4608C85.2017 39.4978 87.7327 33.7952 90.71 28.3015Z" fill="url(#paint0_linear_180_369)"/>
<defs>
<linearGradient id="paint0_linear_180_369" x1="1.50013" y1="13.5" x2="203.5" y2="87" gradientUnits="userSpaceOnUse">
<stop/>
<stop offset="1" stop-color="white"/>
</linearGradient>
</defs>
</svg>
