<svg width="40" height="40" viewBox="0 0 40 40" fill="none" xmlns="http://www.w3.org/2000/svg">
<path d="M20.0781 17.7734H22.0312C22.6784 17.7734 23.2031 17.2487 23.2031 16.6016C23.2031 15.9544 22.6784 15.4297 22.0312 15.4297H20.0781C19.4309 15.4297 18.9062 15.9544 18.9062 16.6016C18.9062 17.2487 19.4309 17.7734 20.0781 17.7734Z" fill="#425EDB"/>
<path d="M15.0781 15.4297H13.125C12.4778 15.4297 11.9531 15.9544 11.9531 16.6016C11.9531 17.2487 12.4778 17.7734 13.125 17.7734H15.0781C15.7253 17.7734 16.25 17.2487 16.25 16.6016C16.25 15.9544 15.7253 15.4297 15.0781 15.4297Z" fill="#425EDB"/>
<path d="M27.0312 17.7734H28.9844C29.6316 17.7734 30.1562 17.2487 30.1562 16.6016C30.1562 15.9544 29.6316 15.4297 28.9844 15.4297H27.0312C26.3841 15.4297 25.8594 15.9544 25.8594 16.6016C25.8594 17.2487 26.3841 17.7734 27.0312 17.7734Z" fill="#425EDB"/>
<path d="M8.125 20.7031H6.17188C5.52469 20.7031 5 21.2278 5 21.875C5 22.5222 5.52469 23.0469 6.17188 23.0469H8.125C8.77219 23.0469 9.29688 22.5222 9.29688 21.875C9.29688 21.2278 8.77219 20.7031 8.125 20.7031Z" fill="#425EDB"/>
<path d="M15.0781 20.7031H13.125C12.4778 20.7031 11.9531 21.2278 11.9531 21.875C11.9531 22.5222 12.4778 23.0469 13.125 23.0469H15.0781C15.7253 23.0469 16.25 22.5222 16.25 21.875C16.25 21.2278 15.7253 20.7031 15.0781 20.7031Z" fill="#425EDB"/>
<path d="M23.2031 21.875C23.2031 21.2278 22.6784 20.7031 22.0312 20.7031H20.0781C19.4309 20.7031 18.9062 21.2278 18.9062 21.875C18.9062 22.5222 19.4309 23.0469 20.0781 23.0469H22.0312C22.6784 23.0469 23.2031 22.5222 23.2031 21.875Z" fill="#425EDB"/>
<path d="M8.125 25.9766H6.17188C5.52469 25.9766 5 26.5012 5 27.1484C5 27.7956 5.52469 28.3203 6.17188 28.3203H8.125C8.77219 28.3203 9.29688 27.7956 9.29688 27.1484C9.29688 26.5012 8.77219 25.9766 8.125 25.9766Z" fill="#425EDB"/>
<path d="M15.0781 25.9766H13.125C12.4778 25.9766 11.9531 26.5012 11.9531 27.1484C11.9531 27.7956 12.4778 28.3203 13.125 28.3203H15.0781C15.7253 28.3203 16.25 27.7956 16.25 27.1484C16.25 26.5012 15.7253 25.9766 15.0781 25.9766Z" fill="#425EDB"/>
<path d="M35.1562 21.8028V6.64062C35.1562 4.27133 33.2287 2.34375 30.8594 2.34375H28.5938V1.17188C28.5938 0.524687 28.0691 0 27.4219 0C26.7747 0 26.25 0.524687 26.25 1.17188V2.34375H22.0312V1.17188C22.0312 0.524687 21.5066 0 20.8594 0C20.2122 0 19.6875 0.524687 19.6875 1.17188V2.34375H15.4688V1.17188C15.4688 0.524687 14.9441 0 14.2969 0C13.6497 0 13.125 0.524687 13.125 1.17188V2.34375H8.90625V1.17188C8.90625 0.524687 8.38156 0 7.73438 0C7.08719 0 6.5625 0.524687 6.5625 1.17188V2.34375H4.29688C1.92758 2.34375 0 4.27133 0 6.64062V30.0781C0 32.0166 1.57711 33.5938 3.51562 33.5938H21.0642C22.4367 37.3285 26.0295 40 30.2344 40C35.6191 40 40 35.6191 40 30.2344C40 26.6434 38.0513 23.4993 35.1562 21.8028ZM2.34375 6.64062C2.34375 5.56367 3.21992 4.6875 4.29688 4.6875H6.5625V5.85938C6.5625 6.50656 7.08719 7.03125 7.73438 7.03125C8.38156 7.03125 8.90625 6.50656 8.90625 5.85938V4.6875H13.125V5.85938C13.125 6.50656 13.6497 7.03125 14.2969 7.03125C14.9441 7.03125 15.4688 6.50656 15.4688 5.85938V4.6875H19.6875V5.85938C19.6875 6.50656 20.2122 7.03125 20.8594 7.03125C21.5066 7.03125 22.0312 6.50656 22.0312 5.85938V4.6875H26.25V5.85938C26.25 6.50656 26.7747 7.03125 27.4219 7.03125C28.0691 7.03125 28.5938 6.50656 28.5938 5.85938V4.6875H30.8594C31.9363 4.6875 32.8125 5.56367 32.8125 6.64062V10.1562H2.34375V6.64062ZM3.51562 31.25C2.86945 31.25 2.34375 30.7243 2.34375 30.0781V12.5H32.8125V20.8148C31.9909 20.5897 31.1265 20.4688 30.2344 20.4688C24.8496 20.4688 20.4688 24.8496 20.4688 30.2344C20.4688 30.5773 20.4867 30.9161 20.5214 31.25H3.51562ZM30.2344 37.6562C26.142 37.6562 22.8125 34.3268 22.8125 30.2344C22.8125 26.142 26.142 22.8125 30.2344 22.8125C34.3268 22.8125 37.6562 26.142 37.6562 30.2344C37.6562 34.3268 34.3268 37.6562 30.2344 37.6562Z" fill="#425EDB"/>
<path d="M34.1406 29.0625H31.4062V26.3281C31.4062 25.6809 30.8816 25.1562 30.2344 25.1562C29.5872 25.1562 29.0625 25.6809 29.0625 26.3281V30.2344C29.0625 30.8816 29.5872 31.4062 30.2344 31.4062H34.1406C34.7878 31.4062 35.3125 30.8816 35.3125 30.2344C35.3125 29.5872 34.7878 29.0625 34.1406 29.0625Z" fill="#425EDB"/>
</svg>
