<svg width="40" height="40" viewBox="0 0 40 40" fill="none" xmlns="http://www.w3.org/2000/svg">
<g clip-path="url(#clip0_75_683)">
<path d="M11.0777 39.9971H4.6896C2.1051 39.9971 0.00244141 37.8944 0.00244141 35.3099V4.68716C0.00244141 2.10266 2.1051 0 4.6896 0H19.6885C20.9405 0 22.1175 0.487543 23.0028 1.37287L26.1276 4.49764C27.0129 5.38297 27.5005 6.55999 27.5005 7.81194V16.419C27.5005 17.282 26.801 17.9814 25.9381 17.9814C25.0752 17.9814 24.3757 17.282 24.3757 16.419V7.81194C24.3757 7.39462 24.2131 7.00231 23.9181 6.70717L20.7933 3.5824C20.4981 3.28734 20.1058 3.12477 19.6885 3.12477H4.6896C3.8281 3.12477 3.12722 3.82566 3.12722 4.68716V35.3099C3.12722 36.1714 3.8281 36.8723 4.6896 36.8723H11.0777C11.9406 36.8723 12.6401 37.5718 12.6401 38.4347C12.6401 39.2976 11.9406 39.9971 11.0777 39.9971Z" fill="#425EDB"/>
<path d="M16.5314 39.0813C15.5637 38.1136 15.3367 36.6475 15.9665 35.4331L18.2364 31.0575C18.4578 30.6305 18.7426 30.2416 19.0827 29.9015L31.9983 16.9859C33.8259 15.1584 36.7994 15.1584 38.627 16.9859C40.4545 18.8134 40.4545 21.787 38.627 23.6145L25.7114 36.5301C25.3713 36.8701 24.9824 37.155 24.5553 37.3764L20.1797 39.6462C18.9649 40.2764 17.4987 40.0487 16.5314 39.0813ZM34.2078 19.1954L21.2922 32.111C21.1789 32.2244 21.084 32.3541 21.0101 32.4964L18.7404 36.872L23.1166 34.6027C23.2589 34.5289 23.3885 34.434 23.5018 34.3206L36.4174 21.405C37.0266 20.7958 37.0266 19.8047 36.4174 19.1954C35.8082 18.5863 34.817 18.5862 34.2078 19.1954Z" fill="#425EDB"/>
<path d="M19.6885 14.9988H7.81434C6.95143 14.9988 6.25195 14.2993 6.25195 13.4364C6.25195 12.5735 6.95143 11.874 7.81434 11.874H19.6885C20.5514 11.874 21.2509 12.5735 21.2509 13.4364C21.2509 14.2993 20.5513 14.9988 19.6885 14.9988Z" fill="#425EDB"/>
<path d="M19.6885 21.2488H7.81434C6.95143 21.2488 6.25195 20.5493 6.25195 19.6864C6.25195 18.8235 6.95143 18.124 7.81434 18.124H19.6885C20.5514 18.124 21.2509 18.8235 21.2509 19.6864C21.2509 20.5493 20.5513 21.2488 19.6885 21.2488Z" fill="#425EDB"/>
<path d="M13.4389 27.4978H7.81434C6.95143 27.4978 6.25195 26.7983 6.25195 25.9354C6.25195 25.0725 6.95143 24.373 7.81434 24.373H13.4389C14.3018 24.373 15.0013 25.0725 15.0013 25.9354C15.0013 26.7983 14.3018 27.4978 13.4389 27.4978Z" fill="#425EDB"/>
</g>
<defs>
<clipPath id="clip0_75_683">
<rect width="40" height="40" fill="white"/>
</clipPath>
</defs>
</svg>
