<svg width="40" height="40" viewBox="0 0 40 40" fill="none" xmlns="http://www.w3.org/2000/svg">
<path d="M31.6126 24.7784C30.7937 23.9257 29.8059 23.4698 28.7591 23.4698C27.7207 23.4698 26.7245 23.9173 25.8718 24.7699L23.2041 27.4292C22.9846 27.311 22.7651 27.2013 22.554 27.0916C22.2501 26.9396 21.9631 26.7961 21.7182 26.6441C19.2193 25.057 16.9483 22.9886 14.7702 20.3124C13.7149 18.9785 13.0058 17.8557 12.4908 16.716C13.1831 16.0828 13.8247 15.4243 14.4494 14.7912C14.6858 14.5548 14.9222 14.3099 15.1586 14.0736C16.9315 12.3007 16.9315 10.0044 15.1586 8.23151L12.8538 5.92677C12.5921 5.66506 12.322 5.39491 12.0687 5.12475C11.5622 4.60133 11.0303 4.06103 10.4816 3.55449C9.66266 2.74403 8.68335 2.31348 7.6534 2.31348C6.62344 2.31348 5.62725 2.74403 4.78302 3.55449C4.77458 3.56293 4.77458 3.56293 4.76614 3.57138L1.89576 6.46708C0.815154 7.54769 0.198868 8.86468 0.0637914 10.3927C-0.138823 12.8579 0.587212 15.1542 1.1444 16.6569C2.51205 20.3462 4.55508 23.7653 7.60274 27.4292C11.3005 31.8445 15.7495 35.3312 20.8318 37.7879C22.7735 38.7081 25.3653 39.7972 28.261 39.9829C28.4383 39.9913 28.624 39.9998 28.7928 39.9998C30.743 39.9998 32.3808 39.2991 33.664 37.9061C33.6725 37.8892 33.6894 37.8808 33.6978 37.8639C34.1368 37.332 34.6433 36.8508 35.1752 36.3358C35.5382 35.9897 35.9097 35.6267 36.2727 35.2468C37.1085 34.3772 37.5475 33.3642 37.5475 32.3258C37.5475 31.2789 37.1 30.2743 36.2474 29.4301L31.6126 24.7784ZM34.6349 33.6681C34.6265 33.6681 34.6265 33.6765 34.6349 33.6681C34.3057 34.0227 33.968 34.3435 33.6049 34.698C33.0562 35.2215 32.499 35.7702 31.9756 36.3865C31.1229 37.2983 30.1183 37.7288 28.8013 37.7288C28.6747 37.7288 28.5396 37.7288 28.4129 37.7204C25.9056 37.56 23.5755 36.5807 21.828 35.7449C17.0496 33.4317 12.8538 30.1477 9.36718 25.9856C6.48836 22.5158 4.56352 19.3078 3.28874 15.8633C2.50361 13.7612 2.21657 12.1234 2.34321 10.5785C2.42763 9.59072 2.80753 8.77182 3.50824 8.07111L6.38705 5.19229C6.80073 4.80395 7.23972 4.59289 7.67028 4.59289C8.20214 4.59289 8.6327 4.9137 8.90285 5.18385C8.91129 5.19229 8.91974 5.20073 8.92818 5.20918C9.44316 5.69039 9.93281 6.18848 10.4478 6.72034C10.7095 6.9905 10.9797 7.26065 11.2498 7.53924L13.5545 9.84399C14.4494 10.7389 14.4494 11.5662 13.5545 12.4611C13.3097 12.7059 13.0733 12.9507 12.8285 13.1871C12.1194 13.9132 11.444 14.5885 10.7095 15.247C10.6926 15.2639 10.6757 15.2724 10.6673 15.2893C9.94125 16.0153 10.0763 16.7244 10.2283 17.2056C10.2367 17.231 10.2452 17.2563 10.2536 17.2816C10.853 18.7337 11.6972 20.1013 12.9805 21.7307L12.9889 21.7391C15.319 24.6095 17.7757 26.8467 20.4857 28.5605C20.8318 28.78 21.1864 28.9573 21.5241 29.1261C21.828 29.2781 22.115 29.4216 22.3598 29.5736C22.3936 29.5905 22.4274 29.6158 22.4611 29.6327C22.7482 29.7762 23.0183 29.8437 23.2969 29.8437C23.9976 29.8437 24.4366 29.4047 24.5802 29.2612L27.4674 26.374C27.7544 26.0869 28.2103 25.7408 28.7422 25.7408C29.2656 25.7408 29.6962 26.07 29.9579 26.3571C29.9663 26.3655 29.9663 26.3655 29.9748 26.374L34.6265 31.0257C35.496 31.8868 35.496 32.7732 34.6349 33.6681Z" fill="#425EDB"/>
<path d="M21.6168 9.51481C23.8287 9.88627 25.838 10.9331 27.442 12.5371C29.046 14.1412 30.0844 16.1504 30.4643 18.3623C30.5572 18.9195 31.0384 19.3078 31.5872 19.3078C31.6547 19.3078 31.7138 19.2994 31.7813 19.291C32.4061 19.1897 32.8197 18.5987 32.7184 17.974C32.2625 15.2978 30.9962 12.8579 29.0629 10.9247C27.1296 8.99139 24.6898 7.72505 22.0136 7.26916C21.3889 7.16786 20.8064 7.58153 20.6966 8.19781C20.5869 8.8141 20.9921 9.4135 21.6168 9.51481Z" fill="#425EDB"/>
<path d="M39.9535 17.6448C39.2021 13.238 37.1253 9.2279 33.9341 6.03672C30.7429 2.84554 26.7329 0.768738 22.326 0.0173754C21.7097 -0.0923741 21.1272 0.32974 21.0174 0.946026C20.9161 1.57075 21.3298 2.15327 21.9545 2.26302C25.8886 2.92996 29.4766 4.7957 32.3301 7.64075C35.1836 10.4942 37.0409 14.0822 37.7078 18.0163C37.8007 18.5735 38.2819 18.9618 38.8306 18.9618C38.8982 18.9618 38.9573 18.9534 39.0248 18.945C39.6411 18.8521 40.0632 18.2611 39.9535 17.6448Z" fill="#425EDB"/>
</svg>
